<svg width="32" height="32" viewBox="0 0 32 32" fill="none" xmlns="http://www.w3.org/2000/svg">
<path fill-rule="evenodd" clip-rule="evenodd" d="M16 24C20.4183 24 24 20.4183 24 16C24 11.5817 20.4183 8 16 8C11.5817 8 8 11.5817 8 16C8 20.4183 11.5817 24 16 24ZM16 21.3333C18.9455 21.3333 21.3333 18.9455 21.3333 16C21.3333 13.0545 18.9455 10.6667 16 10.6667C13.0545 10.6667 10.6667 13.0545 10.6667 16C10.6667 18.9455 13.0545 21.3333 16 21.3333Z" fill="#6874E8"/>
<path d="M24 6.6665C23.2636 6.6665 22.6667 7.26346 22.6667 7.99984C22.6667 8.73621 23.2636 9.33317 24 9.33317C24.7364 9.33317 25.3334 8.73621 25.3334 7.99984C25.3334 7.26346 24.7364 6.6665 24 6.6665Z" fill="#6874E8"/>
<path fill-rule="evenodd" clip-rule="evenodd" d="M2.20526 5.70158C1.33331 7.41287 1.33331 9.65308 1.33331 14.1335V17.8668C1.33331 22.3472 1.33331 24.5875 2.20526 26.2987C2.97225 27.804 4.19609 29.0279 5.70139 29.7948C7.41269 30.6668 9.6529 30.6668 14.1333 30.6668H17.8666C22.347 30.6668 24.5873 30.6668 26.2985 29.7948C27.8038 29.0279 29.0277 27.804 29.7946 26.2987C30.6666 24.5875 30.6666 22.3472 30.6666 17.8668V14.1335C30.6666 9.65308 30.6666 7.41287 29.7946 5.70158C29.0277 4.19627 27.8038 2.97243 26.2985 2.20544C24.5873 1.3335 22.347 1.3335 17.8666 1.3335H14.1333C9.6529 1.3335 7.41269 1.3335 5.70139 2.20544C4.19609 2.97243 2.97225 4.19627 2.20526 5.70158ZM17.8666 4.00016H14.1333C11.8491 4.00016 10.2963 4.00224 9.09609 4.1003C7.92697 4.19582 7.3291 4.36895 6.91203 4.58146C5.9085 5.09279 5.09261 5.90868 4.58127 6.91222C4.36877 7.32928 4.19563 7.92715 4.10011 9.09627C4.00206 10.2965 3.99998 11.8493 3.99998 14.1335V17.8668C3.99998 20.1511 4.00206 21.7038 4.10011 22.904C4.19563 24.0732 4.36877 24.6711 4.58127 25.0882C5.09261 26.0916 5.9085 26.9075 6.91203 27.4188C7.3291 27.6314 7.92697 27.8046 9.09609 27.9C10.2963 27.998 11.8491 28.0002 14.1333 28.0002H17.8666C20.1509 28.0002 21.7036 27.998 22.9038 27.9C24.073 27.8046 24.6709 27.6314 25.088 27.4188C26.0914 26.9075 26.9073 26.0916 27.4186 25.0882C27.6312 24.6711 27.8044 24.0732 27.8998 22.904C27.9978 21.7038 28 20.1511 28 17.8668V14.1335C28 11.8493 27.9978 10.2965 27.8998 9.09627C27.8044 7.92715 27.6312 7.32928 27.4186 6.91222C26.9073 5.90868 26.0914 5.09279 25.088 4.58146C24.6709 4.36895 24.073 4.19582 22.9038 4.1003C21.7036 4.00224 20.1509 4.00016 17.8666 4.00016Z" fill="#6874E8"/>
</svg>
