<svg width="80" height="80" viewBox="0 0 80 80" fill="none" xmlns="http://www.w3.org/2000/svg">
<path d="M40 73.3335C40.884 73.3333 41.7317 72.982 42.3566 72.3568L72.3567 42.3568C72.6968 42.0168 72.9593 41.6071 73.1261 41.156C73.293 40.7049 73.3603 40.2231 73.3233 39.7435L71.18 11.8868C71.1195 11.0933 70.777 10.3476 70.2146 9.7845C69.6521 9.22144 68.9068 8.8782 68.1133 8.81684L40.2566 6.66684C39.7771 6.62988 39.2952 6.69715 38.8441 6.86401C38.393 7.03087 37.9834 7.29337 37.6433 7.6335L7.64331 37.6335C7.01841 38.2586 6.66736 39.1063 6.66736 39.9902C6.66736 40.874 7.01841 41.7217 7.64331 42.3468L37.6433 72.3468C37.952 72.6582 38.319 72.9056 38.7234 73.0749C39.1278 73.2442 39.5616 73.3321 40 73.3335ZM41.2733 13.4402L64.7533 15.2468L66.56 38.7268L40 65.2868L14.7133 40.0002L41.2733 13.4402ZM48.1433 31.8568C47.2108 30.9246 46.5756 29.7367 46.3182 28.4434C46.0608 27.1502 46.1927 25.8096 46.6973 24.5913C47.2018 23.373 48.0563 22.3317 49.1526 21.5991C50.249 20.8665 51.538 20.4754 52.8566 20.4754C54.1753 20.4754 55.4643 20.8665 56.5607 21.5991C57.657 22.3317 58.5115 23.373 59.016 24.5913C59.5206 25.8096 59.6525 27.1502 59.3951 28.4434C59.1377 29.7367 58.5025 30.9246 57.57 31.8568C56.3198 33.1066 54.6244 33.8087 52.8566 33.8087C51.0889 33.8087 49.3935 33.1066 48.1433 31.8568Z" fill="#6874E8"/>
</svg>
