<svg width="75" height="75" viewBox="0 0 75 75" fill="none" xmlns="http://www.w3.org/2000/svg">
<path d="M63.6875 10.8125L50 6.25C50 9.56521 48.683 12.7446 46.3388 15.0888C43.9946 17.433 40.8152 18.75 37.5 18.75C34.1848 18.75 31.0053 17.433 28.6611 15.0888C26.3169 12.7446 25 9.56521 25 6.25L11.3125 10.8125C9.89805 11.2837 8.69865 12.245 7.93077 13.5229C7.16288 14.8008 6.87709 16.3111 7.12497 17.7813L8.93747 28.625C9.05646 29.3591 9.43335 30.0267 10.0004 30.5079C10.5675 30.989 11.2875 31.2521 12.0312 31.25H18.75V62.5C18.75 65.9375 21.5625 68.75 25 68.75H50C51.6576 68.75 53.2473 68.0915 54.4194 66.9194C55.5915 65.7473 56.25 64.1576 56.25 62.5V31.25H62.9687C63.7124 31.2521 64.4325 30.989 64.9995 30.5079C65.5666 30.0267 65.9435 29.3591 66.0625 28.625L67.875 17.7813C68.1229 16.3111 67.8371 14.8008 67.0692 13.5229C66.3013 12.245 65.1019 11.2837 63.6875 10.8125Z" stroke="#6874E8" stroke-width="6.25" stroke-linecap="round" stroke-linejoin="round"/>
</svg>
