<svg width="32" height="32" viewBox="0 0 32 32" fill="none" xmlns="http://www.w3.org/2000/svg">
<path d="M16.6559 1.02939C18.2929 1.00439 19.9179 1.01739 21.5419 1.00439C21.5959 3.03539 22.4199 4.86339 23.7309 6.21739L23.7289 6.21539C25.1399 7.48639 26.9759 8.31039 28.9999 8.45039L29.0279 8.45239V13.4884C27.1159 13.4404 25.3179 12.9994 23.6969 12.2414L23.7789 12.2754C22.9949 11.8984 22.3319 11.5114 21.7019 11.0794L21.7539 11.1134C21.7419 14.7624 21.7659 18.4114 21.7289 22.0474C21.6259 23.9004 21.0099 25.5904 20.0219 27.0014L20.0419 26.9704C18.3899 29.3364 15.7139 30.8894 12.6709 30.9814H12.6569C12.5339 30.9874 12.3889 30.9904 12.2429 30.9904C10.5129 30.9904 8.89595 30.5084 7.51795 29.6714L7.55795 29.6944C5.04995 28.1854 3.31995 25.6034 2.99995 22.6004L2.99595 22.5594C2.97095 21.9344 2.95895 21.3094 2.98395 20.6974C3.47395 15.9184 7.47795 12.2214 12.3449 12.2214C12.8919 12.2214 13.4279 12.2684 13.9489 12.3574L13.8929 12.3494C13.9179 14.1984 13.8429 16.0484 13.8429 17.8974C13.4199 17.7444 12.9319 17.6554 12.4229 17.6554C10.5549 17.6554 8.96595 18.8494 8.37795 20.5164L8.36895 20.5464C8.23595 20.9734 8.15895 21.4644 8.15895 21.9724C8.15895 22.1784 8.17195 22.3824 8.19595 22.5824L8.19395 22.5584C8.52595 24.6044 10.2799 26.1484 12.3949 26.1484C12.4559 26.1484 12.5159 26.1474 12.5759 26.1444H12.5669C14.0299 26.1004 15.2999 25.3134 16.0179 24.1504L16.0279 24.1324C16.2949 23.7604 16.4779 23.3104 16.5389 22.8214L16.5399 22.8074C16.6649 20.5704 16.6149 18.3464 16.6269 16.1094C16.6389 11.0734 16.6149 6.04939 16.6519 1.02639L16.6559 1.02939Z" fill="#6874E8"/>
</svg>
