<svg width="82" height="82" viewBox="0 0 82 82" fill="none" xmlns="http://www.w3.org/2000/svg">
<path fill-rule="evenodd" clip-rule="evenodd" d="M37.6021 6.83325H44.3979C49.1334 6.83322 52.8996 6.83322 55.9363 7.0854C59.0465 7.34367 61.6965 7.88405 64.1165 9.14128C67.8608 11.0862 70.9136 14.1391 72.8587 17.8833C74.116 20.3036 74.6562 22.9535 74.9145 26.0636C75.1667 29.1004 75.1667 32.8665 75.1667 37.602V44.3978C75.1667 49.1333 75.1667 52.8995 74.9145 55.9362C74.6562 59.0464 74.116 61.6964 72.8587 64.1164C70.9136 67.8607 67.8608 70.9135 64.1165 72.8586C61.6965 74.116 59.0465 74.6561 55.9363 74.9144C52.8996 75.1666 49.1334 75.1666 44.3979 75.1666H37.6021C32.8666 75.1666 29.1005 75.1666 26.0637 74.9144C22.9536 74.6561 20.3037 74.116 17.8834 72.8586C14.1392 70.9135 11.0863 67.8607 9.14137 64.1164C7.88414 61.6964 7.34376 59.0464 7.08549 55.9362C6.83331 52.8995 6.83331 49.1333 6.83334 44.3978V37.602C6.83331 32.8665 6.83331 29.1004 7.08549 26.0636C7.34376 22.9535 7.88414 20.3036 9.14137 17.8833C11.0863 14.1391 14.1392 11.0862 17.8834 9.14128C20.3037 7.88405 22.9536 7.34367 26.0637 7.0854C29.1005 6.83322 32.8666 6.83322 37.6021 6.83325ZM26.6292 13.8953C23.9493 14.1178 22.3157 14.5391 21.0334 15.2053C18.5372 16.5019 16.502 18.5371 15.2054 21.0333C14.5392 22.3156 14.1179 23.9492 13.8954 26.6291C13.6694 29.3499 13.6667 32.8323 13.6667 37.7541V44.2457C13.6667 49.1675 13.6694 52.6497 13.8954 55.3708C14.1179 58.0508 14.5392 59.6843 15.2054 60.9666C16.502 63.4628 18.5372 65.4981 21.0334 66.7947C22.3157 67.4606 23.9493 67.8819 26.6292 68.1047C29.35 68.3305 32.8324 68.3332 37.7542 68.3332H44.2458C49.1675 68.3332 52.6498 68.3305 55.3709 68.1047C58.0509 67.8819 59.6844 67.4606 60.9667 66.7947C63.4629 65.4981 65.4982 63.4628 66.7948 60.9666C67.4607 59.6843 67.882 58.0508 68.1048 55.3708C68.3306 52.6497 68.3333 49.1675 68.3333 44.2457V37.7541C68.3333 32.8323 68.3306 29.3499 68.1048 26.6291C67.882 23.9492 67.4607 22.3156 66.7948 21.0333C65.4982 18.5371 63.4629 16.5019 60.9667 15.2053C59.6844 14.5391 58.0509 14.1178 55.3709 13.8953C52.6498 13.6693 49.1675 13.6666 44.2458 13.6666H37.7542C32.8324 13.6666 29.35 13.6693 26.6292 13.8953ZM40.4137 23.0876C42.3007 23.0876 43.8304 24.6172 43.8304 26.5042V43.4753L55.8806 48.0564C57.6446 48.7267 58.5309 50.7002 57.8602 52.4639C57.1899 54.2279 55.2164 55.1142 53.4527 54.4435L39.1998 49.0257C37.8738 48.5214 36.997 47.2504 36.997 45.8318V26.5042C36.997 24.6172 38.5267 23.0876 40.4137 23.0876Z" fill="#6874E8"/>
</svg>
